<svg width="200" height="230" viewBox="0 0 200 230" fill="none" xmlns="http://www.w3.org/2000/svg">
<path d="M169.285 158.242C163.602 196.476 128.195 222.912 89.9459 217.232C51.6971 211.551 25.2508 175.939 30.7149 137.705C36.3976 99.6889 72.0236 73.2527 110.272 78.7148C148.303 84.3953 174.749 120.008 169.285 158.242Z" fill="#42C1CA"/>
<path d="M132.827 106C118.423 97.0315 108.229 116.719 108.007 117.375C105.348 122.188 103.353 129.844 102.024 135.532L83.1868 132.688L82.522 137.719L100.916 140.344C100.472 142.969 100.251 144.719 100.251 144.719L99.1427 150.188V150.407L80.9707 147.782L80.3059 152.813L98.4779 155.438C93.8241 179.063 90.2783 186.282 86.7326 190.219C86.0678 191.094 80.9707 194.375 78.3114 188.469C76.5385 184.313 73.2144 184.75 73.2144 184.75C72.1064 184.532 67.6742 187.375 74.5441 191.75C88.7271 200.719 99.1427 181.032 99.3643 180.375C102.024 175.563 105.348 162.219 106.677 156.532L125.514 159.375L126.179 154.344L107.564 151.719C108.007 149.094 108.229 147.344 108.229 147.344L109.115 141.875V141.657L127.509 144.282L128.174 139.25L110.002 136.625C115.099 113 117.315 111.688 120.86 107.75C121.525 106.875 126.622 103.594 129.282 109.5C131.054 113.657 134.379 113.219 134.379 113.219C135.265 113.219 139.697 110.375 132.827 106Z" fill="#FEFEFE"/>
</svg>
