<svg width="200" height="230" viewBox="0 0 200 230" fill="none" xmlns="http://www.w3.org/2000/svg">
<path d="M159.078 148.422C159.078 161.359 154.766 173.219 147.219 183.281L144.344 181.125L135.719 174.656C141.469 167.109 144.703 157.766 144.703 148.422C144.703 139.078 141.828 130.094 136.078 122.906L141.109 118.234L146.859 113.203C154.766 122.906 159.078 135.125 159.078 148.422Z" fill="#0FCE7C"/>
<path d="M135.719 174.656C141.469 167.109 144.703 157.766 144.703 148.422C144.703 139.078 141.828 130.094 136.078 122.906L141.109 118.234L146.859 113.203L99.7812 148.422L135.719 174.656Z" fill="white"/>
<path d="M144.344 181.125L135.719 174.656L119.187 162.437C122.422 158.125 124.578 153.094 124.578 147.344C124.578 143.391 123.5 139.437 121.703 136.203L136.437 122.547L141.469 117.875L147.219 112.844L161.594 99.5469L166.266 94.875L160.875 89.4844C146.141 74.75 126.734 66.125 105.891 65.4063V54.625C105.891 51.3906 103.375 48.875 100.141 48.875C96.9062 48.875 94.3906 51.3906 94.3906 54.625V65.7656C89.7187 66.125 85.0469 67.2031 80.375 68.2812V54.625C80.375 51.3906 77.8594 49.2344 74.625 49.2344C71.3906 49.2344 68.875 51.75 68.875 54.625V72.5938C40.125 85.5313 20 114.281 20 147.703C20 191.906 55.2187 228.203 99.0625 230H164.109V195.141L147.219 183.281L144.344 181.125ZM109.484 147.703C109.484 153.094 105.172 157.406 99.7812 157.406C94.3906 157.406 90.0781 153.094 90.0781 147.703C90.0781 142.312 94.3906 138 99.7812 138C105.172 138 109.484 142.312 109.484 147.703ZM148.656 215.625H102.297V215.266C64.9219 215.266 34.375 185.078 34.375 147.703C34.375 122.547 48.0312 100.625 68.5156 89.125V113.203C68.5156 116.078 71.0312 118.594 74.2656 118.594C77.5 118.594 80.0156 116.078 80.0156 113.203V83.7344C84.3281 82.2969 89 81.2187 94.0312 80.5C96.5469 80.1406 99.4219 80.1406 102.297 80.1406H105.531C119.906 80.8594 133.203 85.8906 144.344 94.875L110.922 125.781C107.687 123.984 103.734 123.266 99.7812 123.266C86.4844 123.266 75.3437 134.047 75.3437 147.703C75.3437 161 86.125 172.141 99.7812 172.141C101.937 172.141 103.734 171.781 105.891 171.422L113.437 176.812L149.016 202.688V215.625H148.656Z" fill="#15003E"/>
<path d="M148.656 215.625H102.297V215.266C64.9219 215.266 34.375 185.078 34.375 147.703C34.375 122.547 48.0312 100.625 68.5156 89.125V113.203C68.5156 116.078 71.0312 118.594 74.2656 118.594C77.5 118.594 80.0156 116.078 80.0156 113.203V83.7344C84.3281 82.2969 89 81.2187 94.0312 80.5C96.5469 80.1406 99.4219 80.1406 102.297 80.1406H105.531C119.906 80.8594 133.203 85.8906 144.344 94.875L110.922 125.781C107.687 123.984 103.734 123.266 99.7812 123.266C86.4844 123.266 75.3437 134.047 75.3437 147.703C75.3437 161 86.125 172.141 99.7812 172.141C101.937 172.141 103.734 171.781 105.891 171.422L113.437 176.812L149.016 202.688V215.625H148.656Z" fill="white"/>
<path d="M109.484 147.703C109.484 153.094 105.172 157.406 99.7812 157.406C94.3906 157.406 90.0781 153.094 90.0781 147.703C90.0781 142.312 94.3906 138 99.7812 138C105.172 138 109.484 142.312 109.484 147.703Z" fill="white"/>
<path d="M145.121 29.0283L148.679 25.4706L152.236 29.0282L148.679 32.5859L145.121 29.0283Z" fill="#25E899"/>
<path d="M175.25 9.34375C177.83 9.34375 179.922 7.25208 179.922 4.67187C179.922 2.09167 177.83 0 175.25 0C172.67 0 170.578 2.09167 170.578 4.67187C170.578 7.25208 172.67 9.34375 175.25 9.34375Z" fill="#25E899"/>
<path d="M168.211 57.0444L174.056 51.1997L179.9 57.0442L174.056 62.889L168.211 57.0444Z" fill="#25E899"/>
</svg>
