<svg  width="200" height="200" viewBox="0 0 200 200" fill="none" xmlns="http://www.w3.org/2000/svg">
<g>
<path d="M45.4,2.6c3.9,0,7.1,3.2,7.1,7.1c0,3.9-3.2,7-7.1,7c-3.9,0-7.1-3.2-7.1-7.1C38.3,5.7,41.5,2.5,45.4,2.6z M49.7,30.3c-2.1-3.2-6.5-3.2-8.7,0c-4.9,7.3-12.1,19.1-12.1,25.5c0,9.6,7.3,17.4,16.3,17.4c9,0,16.4-7.7,16.4-17.3 C61.6,49.4,54.5,37.6,49.7,30.3z" fill="#FFCC00"></path>
<path d="M64.8,8.1c-1.8-0.9-3.9-0.2-4.8,1.5c-0.9,1.7-0.2,3.9,1.5,4.7c11.9,6.1,19.3,18.2,19.3,31.5 c0,5.9-1.5,11.5-4.2,16.4c0.4-1.9,0.6-3.8,0.6-5.8c0-7.7-2.8-15.2-7.9-21c-1.3-1.5-3.5-1.6-5-0.3c-1.5,1.3-1.6,3.5-0.3,5 c4,4.5,6.2,10.3,6.2,16.3c-0.1,13.2-10.6,23.9-23.7,24.5c-0.4,0-0.9,0-1.3,0c-0.4,0-0.9,0-1.3,0c-13.1-0.7-23.6-11.5-23.5-24.7 c0-5.7,1.9-11,5.5-15.4c1.2-1.5,1-3.7-0.5-5c-1.5-1.2-3.8-1-5,0.5C15.7,42,13.2,49,13.2,56.2c0,2,0.2,4,0.5,5.9 c-2.6-4.9-4.1-10.5-4.1-16.4c0.1-13.3,7.5-25.3,19.5-31.3c1.8-0.9,2.5-3,1.6-4.7c-0.9-1.7-3-2.4-4.8-1.6 C11.6,15.2,2.6,29.6,2.6,45.6C2.5,68.3,20.7,87,43.5,87.9c0.5,0,1.1,0,1.6,0.1C68.7,88.1,87.9,69.2,88,45.9 C88,29.9,79.2,15.5,64.8,8.1z" fill="#25E899"></path>
<!-- <path d="M113.9,44.9l11.8-12.1h6.1l-13.7,13.7l13.8,16.6h-6.1l-10.9-13.5l-0.9,0.9v12.5h-4.6V32.8h4.6V44.9z M154.6,37.1h-12.1v7.3h11.8v4.3h-11.8v10.1h12.1v4.3h-16.7V32.8h16.7V37.1z M172.9,50.2l9.4,12.9h-5.6l-8.7-12.4h-0.8v12.4h-4.6 V32.8h5.4c4,0,6.9,0.8,8.7,2.3c2,1.7,2.9,3.9,2.9,6.6c0,2.1-0.6,4-1.8,5.5C176.6,48.7,174.9,49.7,172.9,50.2z M167.2,46.7h1.5 c4.3,0,6.5-1.7,6.5-5c0-3.1-2.1-4.7-6.3-4.7h-1.6V46.7z M188.9,63.1V30.7L211,53.8V32.8h4.6v32.1l-22.1-23.1v21.2L188.9,63.1 L188.9,63.1z M241.5,37.1h-12.1v7.3h11.8v4.3h-11.8v10.1h12.1v4.3h-16.7V32.8h16.7V37.1z M254.1,32.8v26h8.9v4.3h-13.5V32.8H254.1z"></path> -->
</g>
</svg>