<svg width="501" height="418" viewBox="0 0 501 418" fill="none" xmlns="http://www.w3.org/2000/svg">
<path fill-rule="evenodd" clip-rule="evenodd" d="M335.185 47.0305C334.803 47.1305 334.008 47.4472 333.417 47.7343C332.039 48.4049 330.435 49.9626 329.732 51.3147C328.852 53.0068 328.834 53.1255 327.606 65.4566C325.243 89.1851 323.7 102.741 322.044 114.322C317.763 144.264 312.425 160.609 303.41 171.378C301.842 173.251 299.099 175.942 297.232 177.437C295.748 178.626 292.202 181.026 290.539 181.967C282.351 186.599 271.266 190.131 255.996 192.974C241.924 195.593 224.65 197.725 190.447 201.064C179.932 202.09 179.7 202.126 178.006 202.999C176.663 203.691 175.103 205.298 174.427 206.687C173.731 208.116 173.522 209.002 173.522 210.538C173.522 212.074 173.731 212.96 174.427 214.389C175.166 215.908 176.676 217.417 178.196 218.158C178.786 218.445 179.61 218.764 180.027 218.867C180.444 218.969 184.394 219.397 188.805 219.818C220.802 222.875 236.989 224.751 250.433 226.963C284.435 232.556 299.789 240.678 309.133 258.015C314.015 267.073 317.614 279.382 320.595 297.221C322.803 310.431 324.652 325.857 327.729 356.721C328.288 362.327 328.807 367.213 328.882 367.58C328.957 367.946 329.266 368.757 329.568 369.382C330.481 371.267 331.662 372.469 333.48 373.365C334.839 374.034 335.744 374.244 337.269 374.244C338.806 374.244 339.692 374.036 341.121 373.34C342.64 372.6 344.15 371.091 344.891 369.572C345.179 368.982 345.498 368.158 345.601 367.741C345.703 367.324 346.159 363.006 346.614 358.145C349.898 323.044 351.975 305.645 354.586 291.349C357.068 277.762 359.978 267.93 363.856 260.035C365.834 256.007 367.574 253.216 370.035 250.123C371.235 248.614 374.296 245.471 375.791 244.212C385.844 235.748 400.64 230.561 426.058 226.588C439.402 224.503 454.524 222.783 485.039 219.881C489.832 219.425 494.095 218.969 494.512 218.867C496.81 218.304 499.099 216.474 500.114 214.389C500.887 212.8 501.056 211.979 500.986 210.163C500.937 208.909 500.866 208.479 500.576 207.7C499.61 205.095 497.443 203.075 494.764 202.281C494.106 202.086 491.704 201.808 485.355 201.192C448.871 197.65 431.765 195.542 417.217 192.798C391.861 188.016 377.918 181.268 369.078 169.501C363.52 162.104 359.318 151.665 356.167 137.429C352.792 122.18 350.511 104.347 346.552 62.2368C346.131 57.7575 345.702 53.7516 345.6 53.3349C345.036 51.0338 343.221 48.7666 341.121 47.7389C340.531 47.4499 339.709 47.1276 339.295 47.0228C338.345 46.782 336.119 46.7862 335.185 47.0305Z" fill="#FFC793"/>
<path fill-rule="evenodd" clip-rule="evenodd" d="M107.775 0.123865C107.521 0.190535 106.99 0.401654 106.597 0.593075C105.677 1.04015 104.609 2.07857 104.14 2.97995C103.553 4.10803 103.541 4.18715 102.722 12.4079C101.147 28.2269 100.118 37.264 99.0144 44.9849C96.1606 64.9459 92.6017 75.8431 86.5918 83.0223C85.5466 84.2708 83.7177 86.0645 82.4734 87.0614C81.484 87.8539 79.1196 89.4539 78.0108 90.0813C72.5525 93.1693 65.1621 95.5242 54.9822 97.4192C45.6011 99.1656 34.0851 100.587 11.2827 102.813C4.27287 103.497 4.11803 103.521 2.98908 104.103C2.09387 104.564 1.05392 105.636 0.602868 106.561C0.138761 107.514 0 108.105 0 109.129C0 110.153 0.138761 110.744 0.602868 111.696C1.09602 112.709 2.10229 113.715 3.11538 114.209C3.50901 114.4 4.05841 114.613 4.33627 114.681C4.61413 114.749 7.24747 115.035 10.1881 115.316C31.5199 117.353 42.3111 118.604 51.2738 120.079C73.9419 123.808 84.1778 129.222 90.4071 140.78C93.6619 146.819 96.0609 155.025 98.0484 166.917C99.5202 175.724 100.753 186.008 102.804 206.584C103.177 210.321 103.523 213.579 103.573 213.823C103.623 214.068 103.829 214.608 104.031 215.025C104.639 216.281 105.426 217.083 106.639 217.68C107.544 218.126 108.147 218.266 109.165 218.266C110.189 218.266 110.78 218.127 111.733 217.663C112.745 217.17 113.752 216.164 114.246 215.151C114.437 214.758 114.65 214.209 114.719 213.931C114.787 213.653 115.091 210.774 115.394 207.533C117.584 184.133 118.968 172.533 120.709 163.003C122.364 153.945 124.304 147.39 126.889 142.127C128.208 139.441 129.368 137.581 131.008 135.519C131.808 134.513 133.849 132.417 134.845 131.579C141.548 125.936 151.411 122.477 168.357 119.829C177.253 118.439 187.335 117.292 207.678 115.357C210.873 115.054 213.715 114.749 213.993 114.681C215.525 114.306 217.051 113.086 217.728 111.696C218.243 110.637 218.356 110.09 218.309 108.879C218.276 108.043 218.229 107.756 218.036 107.237C217.392 105.5 215.947 104.153 214.161 103.624C213.722 103.494 212.121 103.309 207.888 102.898C183.566 100.537 172.162 99.1318 162.463 97.3024C145.559 94.114 136.264 89.6157 130.37 81.7709C126.665 76.8393 123.864 69.88 121.763 60.3896C119.513 50.2234 117.993 38.3348 115.353 10.2614C115.072 7.27515 114.787 4.60459 114.718 4.3268C114.342 2.79274 113.132 1.28123 111.733 0.596106C111.339 0.403422 110.791 0.188599 110.515 0.118731C109.881 -0.0417973 108.398 -0.0390197 107.775 0.123865Z" fill="#FFC793"/>
<path fill-rule="evenodd" clip-rule="evenodd" d="M187.534 272.915C187.365 272.959 187.012 273.1 186.75 273.227C186.139 273.524 185.428 274.215 185.116 274.814C184.726 275.565 184.718 275.617 184.174 281.085C183.126 291.606 182.442 297.617 181.707 302.752C179.809 316.028 177.442 323.275 173.445 328.05C172.75 328.881 171.534 330.074 170.706 330.737C170.048 331.264 168.476 332.328 167.738 332.745C164.108 334.799 159.192 336.365 152.422 337.625C146.183 338.787 138.523 339.732 123.358 341.213C118.695 341.668 118.592 341.684 117.842 342.071C117.246 342.377 116.554 343.09 116.254 343.706C115.946 344.339 115.854 344.733 115.854 345.413C115.854 346.094 115.946 346.488 116.254 347.121C116.582 347.794 117.252 348.463 117.926 348.792C118.187 348.92 118.553 349.061 118.738 349.106C118.922 349.152 120.674 349.341 122.63 349.528C136.817 350.884 143.994 351.716 149.955 352.696C165.032 355.176 171.84 358.778 175.983 366.464C178.147 370.481 179.743 375.938 181.065 383.848C182.044 389.706 182.864 396.545 184.228 410.23C184.476 412.716 184.706 414.883 184.739 415.045C184.772 415.208 184.909 415.567 185.044 415.845C185.448 416.68 185.972 417.213 186.778 417.61C187.381 417.907 187.782 418 188.458 418C189.139 418 189.533 417.908 190.166 417.599C190.84 417.271 191.509 416.602 191.838 415.928C191.965 415.667 192.107 415.301 192.152 415.117C192.198 414.932 192.4 413.017 192.602 410.862C194.058 395.298 194.979 387.583 196.136 381.245C197.237 375.22 198.527 370.861 200.247 367.36C201.124 365.574 201.895 364.337 202.986 362.965C203.518 362.296 204.876 360.902 205.538 360.345C209.996 356.592 216.556 354.291 227.827 352.53C233.744 351.605 240.449 350.843 253.979 349.556C256.104 349.354 257.994 349.152 258.179 349.106C259.198 348.857 260.213 348.046 260.663 347.121C261.006 346.416 261.081 346.053 261.05 345.247C261.028 344.691 260.996 344.501 260.868 344.155C260.439 343 259.479 342.104 258.291 341.752C257.999 341.666 256.934 341.543 254.119 341.269C237.942 339.699 230.357 338.765 223.907 337.548C212.664 335.427 206.482 332.435 202.562 327.218C200.098 323.938 198.235 319.309 196.837 312.997C195.341 306.236 194.33 298.329 192.574 279.657C192.387 277.671 192.197 275.895 192.152 275.71C191.902 274.69 191.097 273.685 190.166 273.229C189.904 273.101 189.54 272.958 189.357 272.911C188.935 272.805 187.948 272.807 187.534 272.915Z" fill="#FFC793"/>
</svg>
