<svg xmlns="http://www.w3.org/2000/svg" width="1000" height="1000" viewBox="0 0 1000 1000" fill="none">
  <path d="M 1000 500 C 1000 776.142 776.142 1000 500 1000 C 223.858 1000 0 776.142 0 500 C 0 223.858 223.858 0 500 0 C 776.142 0 1000 223.858 1000 500 Z M 572.907 723.931 C 586.319 723.931 603.243 710.504 593.489 688.471 L 460.851 375.646 C 454.88 361.758 435.578 362.146 429.598 376.176 L 407.249 428.674 C 404.86 434.288 399.344 437.932 393.238 437.932 C 382.724 437.932 375.374 427.538 378.888 417.638 L 465.151 174.638 C 469.436 164.873 478.322 159.974 487.142 160 L 487.211 160 C 497.085 160 505.52 166.143 508.884 174.807 L 712.914 663.643 C 727.982 700.356 737.622 723.305 760.532 723.931 L 778.927 723.948 C 788.908 723.948 797 732.019 797 741.974 C 797 744.123 796.623 746.183 795.932 748.094 C 793.289 755.014 786.617 760 778.929 760 L 549.169 760 C 539.189 760 531.098 751.93 531.098 741.974 C 531.098 732.019 539.187 723.931 549.167 723.931 L 572.907 723.931 Z M 223.747 628.636 C 256.346 631.436 280.341 633.544 298.456 636.936 C 316.528 640.321 327.767 644.825 335.499 651.805 C 343.235 658.788 348.254 668.966 352.064 685.342 C 355.883 701.753 358.307 723.498 361.533 753.034 C 361.943 756.791 365.439 760 369.995 760 C 374.568 760 378.071 756.767 378.461 752.994 C 381.513 723.459 383.81 701.718 387.544 685.311 C 391.269 668.942 396.249 658.776 403.976 651.803 C 411.703 644.828 422.98 640.322 441.146 636.936 C 459.35 633.543 483.477 631.436 516.25 628.635 C 520.425 628.278 524 625.118 524 620.994 C 524 616.877 520.436 613.719 516.268 613.354 C 483.494 610.49 459.366 608.336 441.159 604.912 C 422.992 601.495 411.709 596.975 403.977 589.997 C 396.249 583.023 391.269 572.872 387.545 556.538 C 383.811 540.165 381.514 518.475 378.463 489.006 C 378.072 485.233 374.568 482 369.995 482 C 365.439 482 361.942 485.209 361.531 488.966 C 358.306 518.436 355.882 540.13 352.064 556.508 C 348.254 572.847 343.235 583.011 335.498 589.995 C 327.762 596.978 316.516 601.497 298.442 604.912 C 280.325 608.335 256.328 610.489 223.729 613.354 C 219.562 613.72 216 616.878 216 620.994 C 216 625.117 219.573 628.277 223.747 628.636 Z" fill="currentColor" fill-rule="evenodd"></path>
</svg>